<svg width="1728" height="1117" viewBox="0 0 1728 1117" fill="none" xmlns="http://www.w3.org/2000/svg">
<g clip-path="url(#clip0_1_3)">
<rect width="1728" height="1117" fill="url(#paint0_linear_1_3)"/>
<rect x="87.0001" y="271" width="1" height="1" fill="#D9D9D9"/>
<path d="M852 0H1728V1011L852 489.632V0Z" fill="url(#paint1_linear_1_3)"/>
<path d="M853 -2H1V1010L853 487.911V-2Z" fill="url(#paint2_linear_1_3)"/>
<rect x="552" y="256" width="600" height="600" rx="139" fill="url(#paint3_radial_1_3)"/>
<path d="M267.559 432.65C265.884 434.325 263.772 435.034 261.223 434.777C258.674 434.521 256.381 433.374 254.344 431.338C251.855 428.849 250.445 426.066 250.113 422.988C249.796 419.896 250.641 417.346 252.647 415.34C253.432 414.556 254.239 413.915 255.068 413.417C255.898 412.889 256.539 412.564 256.992 412.444L257.648 412.285L259.254 416.969C258.606 417.015 257.837 417.226 256.946 417.603C256.041 417.965 255.332 418.402 254.82 418.915C253.779 419.956 253.371 421.223 253.598 422.717C253.839 424.195 254.759 425.734 256.358 427.333C257.942 428.917 259.571 429.897 261.246 430.274C262.905 430.636 264.293 430.259 265.409 429.143C266.133 428.419 266.563 427.536 266.699 426.495C266.835 425.455 266.646 424.436 266.133 423.441L269.097 422.649C269.927 424.474 270.206 426.277 269.935 428.057C269.648 429.822 268.856 431.353 267.559 432.65ZM274.953 424.758L269.726 418.988L259.34 409.145L267.825 400.66L269.998 403.33L264.906 408.421L268.776 412.562L273.301 408.036L275.451 410.684L271.084 415.051L271.966 415.979L275.609 419.305L281.085 413.829L283.235 416.476L274.953 424.758ZM282.402 385.993L291.883 396.062L297.517 401.199L295.412 404.434L277.763 400.271L282.718 405.226L288.918 410.793L286.09 413.621L280.863 407.851L270.545 398.076L273.124 395.225L290.91 399.57L279.98 389.093L282.402 385.993ZM286.869 386.82L284.516 383.969L295.264 373.221L297.618 376.072L293.341 379.67L300.717 387.227L306.872 392.839L303.704 396.007L298.477 390.237L290.558 382.498L286.869 386.82ZM310.726 376.947L309.436 378.237L309.572 378.373L315.727 383.984L312.695 387.016L307.468 381.246L297.082 371.403L301.992 366.493C303.44 365.045 304.986 364.283 306.631 364.208C308.275 364.132 309.746 364.743 311.043 366.041C312.024 367.021 312.665 368.175 312.966 369.503C313.268 370.8 313.223 372.112 312.831 373.44L322.334 375.069L320.999 379.21L311.179 376.449C311.088 376.57 310.937 376.736 310.726 376.947ZM303.463 369.593L302.354 370.702L307.309 375.974L308.848 374.435C309.602 373.681 309.934 372.851 309.844 371.946C309.768 371.026 309.271 370.106 308.35 369.186C306.857 367.692 305.228 367.828 303.463 369.593ZM335.053 364.884L329.532 361.581L324.124 366.989L327.224 372.487L324.101 375.157L320.594 367.668L313.896 354.906L317.652 350.561L330.256 357.327L337.814 361.128L335.053 364.884ZM318.558 355.539L318.263 355.833L322.427 363.889L326.455 359.861L318.558 355.539ZM340.338 359.373L335.111 353.603L325.178 344.212L327.825 340.434L337.351 350.593L341.175 354.101L345.452 349.1L347.783 351.928L340.338 359.373ZM351.495 336.178L350.206 337.468L350.341 337.603L356.496 343.215L353.464 346.247L348.237 340.477L337.851 330.634L342.761 325.724C344.209 324.276 345.756 323.514 347.4 323.439C349.044 323.363 350.515 323.974 351.812 325.272C352.793 326.252 353.434 327.406 353.735 328.734C354.037 330.031 353.992 331.343 353.6 332.671L363.103 334.3L361.768 338.441L351.948 335.68C351.857 335.801 351.707 335.967 351.495 336.178ZM344.232 328.824L343.123 329.933L348.079 335.205L349.617 333.666C350.371 332.912 350.703 332.082 350.613 331.177C350.537 330.257 350.04 329.337 349.119 328.417C347.626 326.923 345.997 327.059 344.232 328.824ZM366.567 333.144L361.341 327.374L350.955 317.531L359.44 309.045L361.612 311.715L356.521 316.807L360.39 320.947L364.916 316.422L367.065 319.069L362.698 323.436L363.581 324.364L367.224 327.69L372.7 322.215L374.849 324.862L366.567 333.144ZM383.407 316.802C381.43 318.778 379.175 319.706 376.641 319.585C374.107 319.465 371.746 318.311 369.559 316.123C367.07 313.634 365.727 310.783 365.531 307.57C365.335 304.357 366.338 301.649 368.54 299.447C369.415 298.572 370.305 297.848 371.21 297.275C372.115 296.671 372.809 296.294 373.292 296.143L373.994 295.94L375.826 300.397C375.072 300.548 374.182 300.88 373.156 301.393C372.115 301.891 371.301 302.434 370.713 303.022C369.491 304.244 368.94 305.655 369.061 307.254C369.181 308.853 369.951 310.361 371.369 311.779C373.285 313.695 375.125 314.841 376.89 315.218C378.67 315.58 380.186 315.135 381.438 313.883C382.253 313.069 382.909 312.186 383.407 311.236L379.899 307.729L376.98 310.648L374.921 308.136L380.352 302.705L383.836 306.597L387.909 310.354C386.341 313.22 384.84 315.369 383.407 316.802ZM379.577 288.682L389.103 298.842L395.257 304.454L392.09 307.621L386.863 301.851L376.929 292.461L379.577 288.682ZM389.414 278.619C391.194 276.839 393.336 276.054 395.84 276.265C398.359 276.461 400.667 277.608 402.764 279.705C405.419 282.36 406.875 285.188 407.131 288.19C407.388 291.192 406.4 293.809 404.167 296.042C402.432 297.776 400.283 298.538 397.718 298.327C395.139 298.101 392.823 296.962 390.772 294.91C388.207 292.346 386.797 289.533 386.54 286.47C386.284 283.408 387.242 280.791 389.414 278.619ZM400.954 284.049C397.138 280.233 393.977 279.576 391.473 282.081C390.327 283.227 389.852 284.562 390.048 286.086C390.244 287.579 391.194 289.178 392.899 290.883C394.588 292.572 396.331 293.621 398.126 294.028C399.921 294.405 401.392 294.02 402.538 292.874C403.7 291.712 404.129 290.362 403.828 288.824C403.526 287.255 402.568 285.663 400.954 284.049ZM410.189 258.206L419.67 268.275L425.304 273.411L423.2 276.647L405.55 272.484L410.506 277.439L416.706 283.005L413.877 285.834L408.65 280.064L398.332 270.289L400.912 267.438L418.697 271.782L407.768 261.306L410.189 258.206Z" fill="black"/>
<path d="M735.56 909L735.944 901.224L735.56 886.92H747.56L747.208 890.344H740.008L739.816 896.008H746.216L745.864 899.4H739.688L739.656 900.68L739.88 905.608H747.624L747.272 909H735.56ZM764.238 909.16L762.67 902.92H755.022L753.326 909L749.23 908.68L752.046 900.904L756.334 887.144L762.062 886.728L766.19 900.424L768.846 908.456L764.238 909.16ZM759.182 890.888H758.766L756.014 899.528H761.71L759.182 890.888ZM772.225 902.632C774.038 904.445 775.851 905.352 777.665 905.352C778.603 905.352 779.35 905.139 779.905 904.712C780.481 904.264 780.769 903.699 780.769 903.016C780.769 902.312 780.427 901.725 779.745 901.256C779.062 900.765 778.23 900.339 777.249 899.976C776.289 899.613 775.329 899.208 774.369 898.76C773.409 898.291 772.587 897.629 771.905 896.776C771.222 895.923 770.881 894.888 770.881 893.672C770.881 891.752 771.681 890.099 773.281 888.712C774.881 887.304 776.779 886.6 778.977 886.6C779.979 886.6 780.95 886.707 781.889 886.92C782.827 887.133 783.734 887.443 784.609 887.848L782.433 892.52C781.835 892.051 781.014 891.624 779.969 891.24C778.945 890.835 778.038 890.632 777.249 890.632C776.481 890.632 775.851 890.824 775.361 891.208C774.891 891.571 774.657 892.061 774.657 892.68C774.657 893.299 774.998 893.853 775.681 894.344C776.363 894.813 777.185 895.229 778.145 895.592C779.126 895.955 780.097 896.36 781.057 896.808C782.038 897.235 782.87 897.875 783.553 898.728C784.235 899.581 784.577 900.616 784.577 901.832C784.577 903.837 783.777 905.597 782.177 907.112C780.577 908.605 778.71 909.352 776.577 909.352C774.977 909.352 773.558 908.968 772.321 908.2C771.233 907.539 770.465 906.952 770.017 906.44L769.729 906.088L772.225 902.632ZM785.406 890.6L785.758 886.92H800.958L800.606 890.6L795.038 890.12L794.91 900.68L795.294 909H790.814L791.198 901.224L791.07 890.152L785.406 890.6ZM803.529 909L803.913 901.224L803.529 886.92H815.529L815.177 890.344H807.977L807.785 896.008H814.185L813.833 899.4H807.657L807.625 900.68L807.849 905.608H815.593L815.241 909H803.529ZM825.007 900.488H823.183V900.68L823.567 909H819.279L819.663 901.224L819.279 886.92H826.223C828.271 886.92 829.903 887.475 831.119 888.584C832.335 889.693 832.943 891.165 832.943 893C832.943 894.387 832.58 895.656 831.855 896.808C831.151 897.939 830.191 898.835 828.975 899.496L834.543 907.368L830.671 909.352L825.679 900.456C825.529 900.477 825.305 900.488 825.007 900.488ZM825.071 890.152H823.503L823.279 897.384H825.455C826.521 897.384 827.343 897.032 827.919 896.328C828.516 895.624 828.815 894.621 828.815 893.32C828.815 891.208 827.567 890.152 825.071 890.152ZM854.738 886.856L854.322 900.68L854.674 908.296L850.898 909.096L841.362 893.672V900.68L841.81 909H837.81L838.194 901.224L837.81 887.016L841.65 886.824L851.154 902.472L850.834 887.336L854.738 886.856ZM870.538 900.488H868.714V900.68L869.098 909H864.81L865.194 901.224L864.81 886.92H871.754C873.802 886.92 875.434 887.475 876.65 888.584C877.866 889.693 878.474 891.165 878.474 893C878.474 894.387 878.111 895.656 877.386 896.808C876.682 897.939 875.722 898.835 874.506 899.496L880.074 907.368L876.202 909.352L871.21 900.456C871.061 900.477 870.837 900.488 870.538 900.488ZM870.602 890.152H869.034L868.81 897.384H870.986C872.053 897.384 872.874 897.032 873.45 896.328C874.047 895.624 874.346 894.621 874.346 893.32C874.346 891.208 873.098 890.152 870.602 890.152ZM883.341 909L883.725 901.224L883.341 886.92H895.341L894.989 890.344H887.789L887.597 896.008H893.997L893.645 899.4H887.469L887.437 900.68L887.661 905.608H895.405L895.053 909H883.341ZM906.803 909.352C904.009 909.352 901.758 908.413 900.051 906.536C898.345 904.659 897.491 902.173 897.491 899.08C897.491 895.56 898.558 892.595 900.691 890.184C902.825 887.773 905.449 886.568 908.563 886.568C909.801 886.568 910.942 886.685 911.987 886.92C913.054 887.133 913.811 887.357 914.259 887.592L914.899 887.944L913.043 892.392C912.403 891.965 911.539 891.571 910.451 891.208C909.363 890.824 908.403 890.632 907.571 890.632C905.843 890.632 904.457 891.24 903.411 892.456C902.366 893.672 901.843 895.283 901.843 897.288C901.843 899.997 902.334 902.109 903.315 903.624C904.318 905.139 905.705 905.896 907.475 905.896C908.627 905.896 909.715 905.736 910.739 905.416V900.456H906.611L906.931 897.224H914.611L914.323 902.44L914.547 907.976C911.411 908.893 908.83 909.352 906.803 909.352ZM923.979 886.76L923.531 900.68L923.915 909H919.435L919.819 901.224L919.435 887.56L923.979 886.76ZM938.051 886.6C940.569 886.6 942.638 887.56 944.259 889.48C945.902 891.4 946.723 893.843 946.723 896.808C946.723 900.563 945.753 903.592 943.811 905.896C941.87 908.2 939.321 909.352 936.163 909.352C933.71 909.352 931.651 908.371 929.987 906.408C928.323 904.424 927.491 901.981 927.491 899.08C927.491 895.453 928.483 892.467 930.467 890.12C932.451 887.773 934.979 886.6 938.051 886.6ZM942.371 898.6C942.371 893.203 940.601 890.504 937.059 890.504C935.438 890.504 934.158 891.112 933.219 892.328C932.302 893.523 931.843 895.325 931.843 897.736C931.843 900.125 932.334 902.099 933.315 903.656C934.318 905.192 935.63 905.96 937.251 905.96C938.894 905.96 940.153 905.309 941.027 904.008C941.923 902.685 942.371 900.883 942.371 898.6ZM967.176 886.856L966.76 900.68L967.112 908.296L963.336 909.096L953.8 893.672V900.68L954.248 909H950.248L950.632 901.224L950.248 887.016L954.088 886.824L963.592 902.472L963.272 887.336L967.176 886.856Z" fill="black"/>
<path d="M1302.72 280.596L1302.97 280.845L1307.93 278.017L1319.13 271.16L1321.28 274.125L1309.83 280.641L1302.14 285.303L1297.7 281.456L1302.45 274.125L1304.67 270.368L1301.43 272.247L1293.74 276.908L1289.37 273.129L1294.06 265.73L1300.96 254.122L1304.47 256.498L1297.57 267.065L1294.4 272.269L1294.65 272.518L1300.03 269.531L1307.79 265.074L1309.33 262.494L1312.88 264.915L1305.94 275.437L1302.72 280.596ZM1308.13 291.656L1313.9 286.43L1323.74 276.044L1332.23 284.529L1329.56 286.701L1324.46 281.61L1320.32 285.479L1324.85 290.005L1322.2 292.154L1317.83 287.787L1316.91 288.67L1313.58 292.313L1319.06 297.788L1316.41 299.938L1308.13 291.656ZM1324.02 298.539C1324.02 301.104 1324.66 303.027 1325.94 304.309C1326.6 304.973 1327.28 305.35 1327.98 305.441C1328.7 305.531 1329.3 305.335 1329.79 304.852C1330.28 304.355 1330.46 303.698 1330.31 302.884C1330.17 302.054 1329.88 301.164 1329.45 300.214C1329.02 299.279 1328.63 298.313 1328.27 297.318C1327.92 296.307 1327.81 295.258 1327.93 294.172C1328.05 293.086 1328.54 292.113 1329.4 291.253C1330.76 289.896 1332.49 289.292 1334.61 289.443C1336.73 289.579 1338.57 290.424 1340.13 291.977C1340.84 292.686 1341.45 293.448 1341.96 294.263C1342.47 295.077 1342.9 295.937 1343.23 296.842L1338.38 298.607C1338.29 297.853 1338.02 296.971 1337.55 295.96C1337.11 294.949 1336.61 294.165 1336.05 293.607C1335.51 293.064 1334.93 292.754 1334.31 292.679C1333.72 292.603 1333.21 292.785 1332.77 293.222C1332.34 293.659 1332.18 294.293 1332.32 295.123C1332.47 295.937 1332.76 296.812 1333.18 297.747C1333.62 298.698 1334.02 299.671 1334.38 300.666C1334.77 301.662 1334.91 302.703 1334.79 303.789C1334.67 304.875 1334.18 305.848 1333.32 306.708C1331.9 308.126 1330.09 308.805 1327.89 308.744C1325.7 308.669 1323.85 307.877 1322.34 306.369C1321.21 305.237 1320.48 303.962 1320.15 302.544C1319.85 301.308 1319.72 300.35 1319.76 299.671L1319.81 299.218L1324.02 298.539ZM1341.85 299.352L1344.7 296.999L1355.44 307.747L1352.59 310.1L1349 305.824L1341.44 313.2L1335.83 319.355L1332.66 316.187L1338.43 310.96L1346.17 303.041L1341.85 299.352ZM1341.65 325.178L1347.42 319.951L1357.26 309.565L1365.75 318.05L1363.08 320.222L1357.99 315.131L1353.85 319L1358.37 323.526L1355.72 325.676L1351.36 321.308L1350.43 322.191L1347.1 325.834L1352.58 331.31L1349.93 333.459L1341.65 325.178ZM1362.86 334.346L1361.57 333.056L1361.43 333.192L1355.82 339.347L1352.79 336.315L1358.56 331.088L1368.4 320.702L1373.31 325.612C1374.76 327.06 1375.52 328.606 1375.59 330.251C1375.67 331.895 1375.06 333.366 1373.76 334.663C1372.78 335.643 1371.63 336.284 1370.3 336.586C1369 336.888 1367.69 336.843 1366.36 336.45L1364.73 345.954L1360.59 344.619L1363.35 334.799C1363.23 334.708 1363.07 334.557 1362.86 334.346ZM1370.21 327.083L1369.1 325.974L1363.83 330.929L1365.37 332.468C1366.12 333.222 1366.95 333.554 1367.86 333.464C1368.78 333.388 1369.7 332.89 1370.62 331.97C1372.11 330.477 1371.97 328.848 1370.21 327.083ZM1393.52 345.73L1383.45 355.211L1378.31 360.845L1375.08 358.741L1379.24 341.091L1374.28 346.047L1368.72 352.247L1365.89 349.418L1371.66 344.191L1381.43 333.873L1384.29 336.453L1379.94 354.238L1390.42 343.309L1393.52 345.73ZM1395.05 366.542L1393.76 365.252L1393.62 365.388L1388.01 371.542L1384.98 368.51L1390.75 363.283L1400.59 352.897L1405.5 357.807C1406.95 359.255 1407.71 360.802 1407.79 362.446C1407.87 364.09 1407.25 365.561 1405.96 366.858C1404.98 367.839 1403.82 368.48 1402.49 368.782C1401.2 369.083 1399.89 369.038 1398.56 368.646L1396.93 378.149L1392.79 376.814L1395.55 366.994C1395.43 366.904 1395.26 366.753 1395.05 366.542ZM1402.4 359.278L1401.3 358.169L1396.02 363.125L1397.56 364.663C1398.32 365.418 1399.15 365.75 1400.05 365.659C1400.97 365.584 1401.89 365.086 1402.81 364.166C1404.31 362.672 1404.17 361.043 1402.4 359.278ZM1398.08 381.614L1403.85 376.387L1413.7 366.001L1422.18 374.486L1419.51 376.658L1414.42 371.567L1410.28 375.436L1414.81 379.962L1412.16 382.111L1407.79 377.744L1406.86 378.627L1403.54 382.27L1409.01 387.746L1406.37 389.895L1398.08 381.614ZM1414.43 398.453C1412.45 396.477 1411.52 394.221 1411.64 391.687C1411.76 389.153 1412.92 386.792 1415.1 384.605C1417.59 382.116 1420.44 380.773 1423.66 380.577C1426.87 380.381 1429.58 381.384 1431.78 383.587C1432.66 384.461 1433.38 385.351 1433.95 386.257C1434.56 387.162 1434.93 387.856 1435.08 388.338L1435.29 389.04L1430.83 390.873C1430.68 390.118 1430.35 389.228 1429.84 388.203C1429.34 387.162 1428.79 386.347 1428.21 385.759C1426.98 384.537 1425.57 383.986 1423.97 384.107C1422.38 384.228 1420.87 384.997 1419.45 386.415C1417.53 388.331 1416.39 390.171 1416.01 391.936C1415.65 393.716 1416.09 395.232 1417.35 396.484C1418.16 397.299 1419.04 397.955 1419.99 398.453L1423.5 394.945L1420.58 392.027L1423.09 389.967L1428.52 395.398L1424.63 398.883L1420.87 402.956C1418.01 401.387 1415.86 399.886 1414.43 398.453ZM1442.55 394.623L1432.39 404.149L1426.77 410.304L1423.61 407.136L1429.38 401.909L1438.77 391.975L1442.55 394.623ZM1452.61 404.46C1454.39 406.24 1455.17 408.382 1454.96 410.886C1454.77 413.406 1453.62 415.714 1451.52 417.81C1448.87 420.465 1446.04 421.921 1443.04 422.178C1440.04 422.434 1437.42 421.446 1435.19 419.213C1433.45 417.479 1432.69 415.329 1432.9 412.765C1433.13 410.185 1434.27 407.87 1436.32 405.818C1438.88 403.254 1441.7 401.843 1444.76 401.587C1447.82 401.33 1450.44 402.288 1452.61 404.46ZM1447.18 416C1451 412.184 1451.65 409.023 1449.15 406.519C1448 405.373 1446.67 404.898 1445.14 405.094C1443.65 405.29 1442.05 406.24 1440.35 407.945C1438.66 409.634 1437.61 411.377 1437.2 413.172C1436.82 414.967 1437.21 416.438 1438.35 417.584C1439.52 418.746 1440.87 419.176 1442.4 418.874C1443.97 418.572 1445.57 417.614 1447.18 416ZM1473.02 425.235L1462.95 434.716L1457.82 440.35L1454.58 438.246L1458.74 420.597L1453.79 425.552L1448.22 431.752L1445.39 428.924L1451.16 423.697L1460.94 413.379L1463.79 415.958L1459.45 433.743L1469.92 422.814L1473.02 425.235Z" fill="black"/>
</g>
<defs>
<linearGradient id="paint0_linear_1_3" x1="864" y1="586.5" x2="864" y2="1157" gradientUnits="userSpaceOnUse">
<stop offset="0.171875" stop-color="#A0EAE5"/>
<stop offset="1" stop-color="#4493CF"/>
</linearGradient>
<linearGradient id="paint1_linear_1_3" x1="1728" y1="10" x2="834.5" y2="569.5" gradientUnits="userSpaceOnUse">
<stop stop-color="#A1FB87"/>
<stop offset="1" stop-color="#99E9E7" stop-opacity="0.63"/>
</linearGradient>
<linearGradient id="paint2_linear_1_3" x1="-1.5" y1="5.50001" x2="817.5" y2="545" gradientUnits="userSpaceOnUse">
<stop stop-color="#F1E46D"/>
<stop offset="1" stop-color="#DEB2B7"/>
</linearGradient>
<radialGradient id="paint3_radial_1_3" cx="0" cy="0" r="1" gradientUnits="userSpaceOnUse" gradientTransform="translate(852 556) rotate(90) scale(300)">
<stop stop-color="#FFFCFC"/>
<stop offset="1" stop-color="#E0494F"/>
</radialGradient>
<clipPath id="clip0_1_3">
<rect width="1728" height="1117" fill="white"/>
</clipPath>
</defs>
</svg>
